<svg preserveAspectRatio="none" overflow="visible" style="display: block;" width="14" height="14" viewBox="0 0 14 14" fill="none" xmlns="http://www.w3.org/2000/svg">
<g id="shopping-bag" clip-path="url(#clip0_0_10)">
<path id="Vector" d="M9.33333 5.83324C9.33333 6.45213 9.0875 7.04567 8.64992 7.48329C8.21233 7.92091 7.61884 8.16676 7 8.16676C6.38116 8.16676 5.78767 7.92091 5.35008 7.48329C4.9125 7.04567 4.66667 6.45213 4.66667 5.83324M1.80981 3.51966H12.1896M1.98333 3.18878C1.83187 3.39074 1.75 3.63638 1.75 3.88883V11.667C1.75 11.9765 1.87292 12.2733 2.09171 12.4921C2.3105 12.7109 2.60725 12.8338 2.91667 12.8338H11.0833C11.3928 12.8338 11.6895 12.7109 11.9083 12.4921C12.1271 12.2733 12.25 11.9765 12.25 11.667V3.88883C12.25 3.63638 12.1681 3.39074 12.0167 3.18878L10.85 1.6329C10.7413 1.488 10.6004 1.37038 10.4384 1.28938C10.2764 1.20837 10.0978 1.1662 9.91667 1.1662H4.08333C3.90221 1.1662 3.72358 1.20837 3.56158 1.28938C3.39959 1.37038 3.25867 1.488 3.15 1.6329L1.98333 3.18878Z" stroke="white" stroke-width="2" stroke-linecap="round"/>
</g>
<defs>
<clipPath id="clip0_0_10">
<rect width="14" height="14" fill="white"/>
</clipPath>
</defs>
</svg>
